<svg width="76" height="77" viewBox="0 0 76 77" fill="none" xmlns="http://www.w3.org/2000/svg">
<g clip-path="url(#clip0_449_252)">
<path fill-rule="evenodd" clip-rule="evenodd" d="M60.1557 18.2279C57.5715 20.8121 55.4739 23.8322 53.9826 27.1158C52.4912 30.3994 51.6354 33.8822 51.464 37.3654C51.2926 40.8485 51.8089 44.2638 52.9835 47.4162C54.158 50.5686 55.9678 53.3963 58.3096 55.7381L58.2261 55.8215L58.2262 55.8216L55.3978 58.65L55.3977 58.6499L55.3143 58.7333C52.9726 56.3916 50.1448 54.5818 46.9924 53.4072C43.84 52.2327 40.4247 51.7163 36.9416 51.8878C33.4585 52.0592 29.9757 52.915 26.6921 54.4063C23.4085 55.8976 20.3884 57.9953 17.8042 60.5794L14.9125 57.6877C25.5869 47.0134 39.2385 46.4979 50.0871 53.3393L17.6854 20.9376L20.5138 18.1092L52.9157 50.5111C46.0741 39.6625 46.5895 26.0107 57.264 15.3363L60.1557 18.2279Z" fill="#543C32"/>
</g>
<defs>
<clipPath id="clip0_449_252">
<rect width="53.3333" height="53.3333" fill="white" transform="translate(37.9551 0.666992) rotate(45)"/>
</clipPath>
</defs>
</svg>
