<svg width="55" height="56" viewBox="0 0 55 56" fill="none" xmlns="http://www.w3.org/2000/svg">
<g clip-path="url(#clip0_54_5349)">
<path fill-rule="evenodd" clip-rule="evenodd" d="M13.0435 12.0161C14.9041 13.8767 17.0786 15.387 19.4428 16.4608C21.807 17.5345 24.3146 18.1507 26.8225 18.2741C29.3303 18.3976 31.7893 18.0258 34.0591 17.1801C36.3288 16.3345 38.3648 15.0314 40.0508 13.3453L40.1109 13.4054L40.111 13.4054L42.1474 15.4418L42.1474 15.4419L42.2074 15.5019C40.5214 17.188 39.2183 19.224 38.3726 21.4937C37.5269 23.7634 37.1552 26.2224 37.2786 28.7303C37.402 31.2381 38.0182 33.7458 39.092 36.11C40.1657 38.4741 41.676 40.6486 43.5366 42.5092L41.4546 44.5912C33.769 36.9057 33.3979 27.0765 38.3237 19.2655L14.9945 42.5947L12.9581 40.5583L36.2874 17.2289C28.4764 22.1549 18.6472 21.7838 10.9615 14.0982L13.0435 12.0161Z" fill="#121212"/>
</g>
<defs>
<clipPath id="clip0_54_5349">
<rect width="38.4" height="38.4" fill="white" transform="translate(0.399902 28) rotate(-45)"/>
</clipPath>
</defs>
</svg>
