<svg width="29" height="29" viewBox="0 0 29 29" fill="none" xmlns="http://www.w3.org/2000/svg">
<g clip-path="url(#clip0_422_26919)">
<path fill-rule="evenodd" clip-rule="evenodd" d="M22.4668 7.08499C21.4978 8.05405 20.7112 9.18659 20.1519 10.4179C19.5927 11.6493 19.2717 12.9553 19.2075 14.2615C19.1432 15.5677 19.3368 16.8484 19.7772 18.0306C20.2177 19.2127 20.8964 20.2731 21.7745 21.1513L21.7433 21.1826L21.7433 21.1826L20.6826 22.2433L20.6826 22.2432L20.6513 22.2745C19.7732 21.3964 18.7127 20.7177 17.5306 20.2772C16.3484 19.8368 15.0677 19.6431 13.7615 19.7074C12.4554 19.7717 11.1493 20.0926 9.91797 20.6519C8.68662 21.2111 7.55408 21.9977 6.58502 22.9668L5.50064 21.8824C9.50354 17.8795 14.6229 17.6862 18.6911 20.2517L6.54048 8.10113L7.60114 7.04047L19.7518 19.1912C17.1862 15.123 17.3795 10.0035 21.3824 6.00061L22.4668 7.08499Z" fill="#121212"/>
</g>
<defs>
<clipPath id="clip0_422_26919">
<rect width="20" height="20" fill="white" transform="translate(0 14.6421) rotate(-45)"/>
</clipPath>
</defs>
</svg>
