<svg width="29" height="29" viewBox="0 0 29 29" fill="none" xmlns="http://www.w3.org/2000/svg">
<g clip-path="url(#clip0_408_3813)">
<path fill-rule="evenodd" clip-rule="evenodd" d="M6.58499 6.31735C7.55405 7.28642 8.68659 8.07303 9.91794 8.63227C11.1493 9.19151 12.4553 9.51244 13.7615 9.57672C15.0677 9.64101 16.3484 9.44739 17.5306 9.00693C18.7127 8.56647 19.7731 7.88779 20.6513 7.00964L20.6826 7.04093L20.6826 7.04091L21.7433 8.10157L21.7432 8.10159L21.7745 8.13286C20.8964 9.01101 20.2177 10.0714 19.7772 11.2536C19.3368 12.4357 19.1431 13.7165 19.2074 15.0226C19.2717 16.3288 19.5926 17.6349 20.1519 18.8662C20.7111 20.0976 21.4977 21.2301 22.4668 22.1992L21.3824 23.2835C17.3795 19.2806 17.1862 14.1613 19.7517 10.0931L7.60113 22.2437L6.54047 21.183L18.6912 9.03234C14.623 11.5979 9.50354 11.4047 5.50061 7.40173L6.58499 6.31735Z" fill="white"/>
</g>
<defs>
<clipPath id="clip0_408_3813">
<rect width="20" height="20" fill="white" transform="translate(0 14.6421) rotate(-45)"/>
</clipPath>
</defs>
</svg>
