<svg width="28" height="28" viewBox="0 0 28 28" fill="none" xmlns="http://www.w3.org/2000/svg">
<path fill-rule="evenodd" clip-rule="evenodd" d="M25.7186 27.3198C24.1681 25.7693 22.356 24.5107 20.3858 23.6159C18.4157 22.7211 16.326 22.2076 14.2361 22.1048C12.1462 22.0019 10.0971 22.3117 8.20563 23.0164C6.31419 23.7212 4.61752 24.8071 3.21248 26.2121L3.16241 26.1621L3.16238 26.1621L1.46532 24.465L1.46536 24.465L1.41533 24.415C2.82037 23.0099 3.90626 21.3132 4.611 19.4218C5.31573 17.5304 5.62552 15.4812 5.52266 13.3913C5.4198 11.3014 4.90632 9.21176 4.01153 7.2416C3.11674 5.27144 1.85817 3.45938 0.307668 1.90888L2.04268 0.173875C8.44731 6.57851 8.75659 14.7695 4.65175 21.2786L24.0927 1.83761L25.7898 3.53467L6.34867 22.9758C12.8578 18.8708 21.0489 19.1801 27.4536 25.5848L25.7186 27.3198Z" fill="#121212"/>
</svg>
