<svg width="28" height="28" viewBox="0 0 28 28" fill="none" xmlns="http://www.w3.org/2000/svg">
<path fill-rule="evenodd" clip-rule="evenodd" d="M2.53633 0.680226C4.08683 2.23073 5.89889 3.4893 7.86905 4.38409C9.83921 5.27888 11.9289 5.79236 14.0188 5.89522C16.1087 5.99807 18.1578 5.68829 20.0493 4.98355C21.9407 4.27882 23.6374 3.19293 25.0424 1.78789L25.0925 1.83795L25.0925 1.83791L26.7896 3.53497L26.7895 3.535L26.8396 3.58503C25.4345 4.99007 24.3486 6.68675 23.6439 8.57819C22.9391 10.4696 22.6294 12.5188 22.7322 14.6087C22.8351 16.6986 23.3486 18.7882 24.2433 20.7584C25.1381 22.7286 26.3967 24.5406 27.9472 26.0911L26.2122 27.8261C19.8076 21.4215 19.4983 13.2305 23.6031 6.72139L4.16214 26.1624L2.46509 24.4653L21.9062 5.0242C15.3971 9.12915 7.206 8.81992 0.80132 2.41523L2.53633 0.680226Z" fill="#121212"/>
</svg>
